<?xml version="1.0" standalone="no"?>
<!DOCTYPE svg PUBLIC "-//W3C//DTD SVG 20010904//EN"
 "http://www.w3.org/TR/2001/REC-SVG-20010904/DTD/svg10.dtd">
<svg version="1.0" xmlns="http://www.w3.org/2000/svg"
 width="512.000000pt" height="512.000000pt" viewBox="0 0 512.000000 512.000000"
 preserveAspectRatio="xMidYMid meet">
<g transform="translate(0.000000,512.000000) scale(0.100000,-0.100000)"
fill="#000000" stroke="none">
<path d="M2369 5116 c-2 -2 -34 -6 -70 -10 -338 -31 -712 -152 -1011 -324
-271 -157 -480 -333 -702 -592 -162 -189 -326 -471 -422 -727 -35 -94 -97
-302 -108 -360 -2 -15 -9 -53 -15 -83 -29 -159 -36 -244 -35 -470 0 -113 4
-234 8 -270 5 -36 10 -72 11 -80 15 -126 66 -331 119 -487 136 -393 392 -776
713 -1065 348 -313 840 -548 1288 -614 22 -3 51 -8 65 -10 114 -20 472 -26
610 -11 116 13 118 13 235 36 384 73 769 250 1080 494 138 109 264 228 355
336 25 30 50 59 55 65 60 64 203 279 259 386 22 41 47 89 56 105 94 172 207
539 236 770 3 28 8 61 10 75 9 49 11 456 3 525 -15 133 -21 175 -34 235 -3 14
-10 50 -16 80 -6 30 -26 106 -45 169 -176 579 -523 1051 -1026 1395 -53 36
-100 66 -104 66 -4 0 -15 6 -23 14 -20 18 -257 137 -331 166 -142 57 -380 128
-490 146 -14 2 -38 6 -55 9 -16 3 -50 8 -75 11 -25 3 -56 8 -70 11 -28 5 -466
14 -471 9z m441 -1300 c212 -46 401 -136 562 -267 211 -173 362 -414 433 -689
1 -3 5 -25 9 -50 5 -25 11 -54 13 -65 12 -48 10 -305 -3 -385 -48 -300 -210
-587 -435 -776 -53 -43 -139 -104 -149 -104 -5 0 -10 -4 -10 -8 0 -14 -208
-108 -300 -136 -133 -41 -247 -55 -405 -51 -77 2 -156 7 -174 10 -359 68 -659
262 -854 553 -83 124 -159 301 -186 432 -6 30 -13 69 -17 85 -13 66 -12 321 3
405 32 189 125 404 238 555 214 284 519 460 880 508 69 9 324 -2 395 -17z"/>
</g>
</svg>
